<?xml version="1.0" encoding="UTF-8"?>
<!DOCTYPE svg PUBLIC "-//W3C//DTD SVG 1.1//EN" "http://www.w3.org/Graphics/SVG/1.1/DTD/svg11.dtd">
<svg xmlns="http://www.w3.org/2000/svg" version="1.1" width="1080px" height="1080px" style="shape-rendering:geometricPrecision; text-rendering:geometricPrecision; image-rendering:optimizeQuality; fill-rule:evenodd; clip-rule:evenodd" xmlns:xlink="http://www.w3.org/1999/xlink">
<g><path style="opacity:1" fill="#273495" d="M 615.5,50.5 C 630.032,47.622 642.198,51.622 652,62.5C 662.447,80.1058 660.28,95.9392 645.5,110C 629.166,119.822 613.999,118.322 600,105.5C 592.866,96.3533 590.532,86.02 593,74.5C 596.93,63.0728 604.43,55.0728 615.5,50.5 Z"/></g>
<g><path style="opacity:1" fill="#2d3a99" d="M 49.5,57.5 C 49.5,212.5 49.5,367.5 49.5,522.5C 50.5,522.5 51.5,522.5 52.5,522.5C 51.4324,523.434 50.099,523.768 48.5,523.5C 48.167,367.999 48.5004,212.666 49.5,57.5 Z"/></g>
<g><path style="opacity:1" fill="#223194" d="M 49.5,57.5 C 105.167,57.5 160.833,57.5 216.5,57.5C 223.158,81.6592 238.491,97.4925 262.5,105C 293.795,112.239 318.961,103.072 338,77.5C 341.711,71.1992 344.544,64.5325 346.5,57.5C 418.503,57.1667 490.503,57.5 562.5,58.5C 551.583,92.582 560.583,120.082 589.5,141C 611.019,152.501 633.019,153.501 655.5,144C 688.626,123.873 699.626,95.0396 688.5,57.5C 771.5,57.5 854.5,57.5 937.5,57.5C 935.645,85.9583 946.645,107.792 970.5,123C 987.343,131.669 1005.01,133.836 1023.5,129.5C 1023.5,259.5 1023.5,389.5 1023.5,519.5C 989.315,520.853 967.149,537.853 957,570.5C 950.953,607.577 964.786,634.077 998.5,650C 1006.6,652.852 1014.93,654.352 1023.5,654.5C 1023.5,780.5 1023.5,906.5 1023.5,1032.5C 698.5,1032.5 373.5,1032.5 48.5,1032.5C 48.5,907.167 48.5,781.833 48.5,656.5C 84.2259,661.558 109.726,647.891 125,615.5C 135.28,584.784 128.447,558.617 104.5,537C 89.0746,525.641 71.7413,520.808 52.5,522.5C 51.5,522.5 50.5,522.5 49.5,522.5C 49.5,367.5 49.5,212.5 49.5,57.5 Z"/></g>
<g><path style="opacity:1" fill="#fdfdfe" d="M 409.5,633.5 C 408.539,635.265 408.205,637.265 408.5,639.5C 393.5,639.5 378.5,639.5 363.5,639.5C 363.334,632.825 363.5,626.158 364,619.5C 379.333,592.833 394.667,566.167 410,539.5C 410.591,427.167 411.091,314.833 411.5,202.5C 386.06,192.536 371.56,173.869 368,146.5C 366.267,112.8 380.767,88.967 411.5,75C 447.833,65.0984 476,75.9317 496,107.5C 510.101,140.499 503.935,168.999 477.5,193C 471.367,197.15 464.867,200.65 458,203.5C 457.452,319.836 456.619,436.169 455.5,552.5C 439.894,579.383 424.56,606.383 409.5,633.5 Z"/></g>
<g><path style="opacity:1" fill="#fefefe" d="M 815.5,215.5 C 814.168,325.001 814.168,434.667 815.5,544.5C 816.107,544.376 816.44,544.043 816.5,543.5C 846.104,516.4 875.604,489.067 905,461.5C 905.833,420.163 905.667,378.829 904.5,337.5C 870.989,321.824 856.823,295.49 862,258.5C 874.871,219.482 901.705,202.316 942.5,207C 975.973,215.633 993.973,237.133 996.5,271.5C 995.821,302.866 981.154,324.866 952.5,337.5C 951.667,385.497 951.167,433.497 951,481.5C 906,523.167 861,564.833 816,606.5C 815.5,617.495 815.333,628.495 815.5,639.5C 800.167,639.5 784.833,639.5 769.5,639.5C 769.833,498.165 769.5,356.832 768.5,215.5C 736.53,201.239 721.697,176.572 724,141.5C 730.276,110.557 748.776,91.3905 779.5,84C 815.705,80.6788 841.205,95.5121 856,128.5C 865.632,168.558 852.132,197.558 815.5,215.5 Z"/></g>
<g><path style="opacity:1" fill="#fdfdfe" d="M 131.5,104.5 C 167.293,101.97 192.46,116.97 207,149.5C 216.7,189.759 203.033,218.759 166,236.5C 165.333,304.5 165.333,372.5 166,440.5C 197,462.833 228,485.167 259,507.5C 259.833,485.826 259.666,464.159 258.5,442.5C 226.495,427.841 211.995,402.841 215,367.5C 221.86,336.64 240.694,317.806 271.5,311C 312.852,308.243 339.019,326.743 350,366.5C 353.309,402.233 338.809,427.566 306.5,442.5C 305.5,508.163 305.167,573.83 305.5,639.5C 290.167,639.5 274.833,639.5 259.5,639.5C 259.667,614.164 259.5,588.831 259,563.5C 212.833,530.667 166.667,497.833 120.5,465C 120.833,464.667 121.167,464.333 121.5,464C 119.671,388.379 118.838,312.546 119,236.5C 80.9859,218.126 67.6526,188.46 79,147.5C 89.3497,124.266 106.85,109.932 131.5,104.5 Z"/></g>
<g><path style="opacity:1" fill="#243294" d="M 426.5,106.5 C 455.3,104.468 469.133,117.802 468,146.5C 460.924,166.63 446.758,174.796 425.5,171C 404.364,161.274 397.864,145.44 406,123.5C 411.029,115.581 417.863,109.914 426.5,106.5 Z"/></g>
<g><path style="opacity:1" fill="#243294" d="M 784.5,118.5 C 804.315,116.643 817.482,124.976 824,143.5C 826.189,168.14 815.022,181.807 790.5,184.5C 767.847,180.903 757.347,167.57 759,144.5C 763.043,131.292 771.543,122.625 784.5,118.5 Z"/></g>
<g><path style="opacity:1" fill="#243294" d="M 134.5,139.5 C 154.627,137.305 168.127,145.638 175,164.5C 177.14,189.359 165.807,203.025 141,205.5C 124.913,203.751 114.58,195.084 110,179.5C 107.743,159.667 115.909,146.333 134.5,139.5 Z"/></g>
<g><path style="opacity:1" fill="#fdfdfe" d="M 554.5,639.5 C 539.657,639.829 524.99,639.496 510.5,638.5C 532.068,599.699 553.901,561.032 576,522.5C 576.667,469.5 576.667,416.5 576,363.5C 540.636,349.132 524.969,322.799 529,284.5C 536.167,256 554,238.167 582.5,231C 613.692,226.604 637.859,237.437 655,263.5C 663.579,279.92 665.913,297.254 662,315.5C 654.981,339.685 639.481,355.352 615.5,362.5C 615.492,419.208 615.492,475.708 615.5,532C 595.028,567.779 574.695,603.613 554.5,639.5 Z"/></g>
<g><path style="opacity:1" fill="#233294" d="M 921.5,240.5 C 939.199,238.763 952.033,245.763 960,261.5C 965.431,282.471 958.264,296.971 938.5,305C 919.708,309.353 906.208,302.853 898,285.5C 892.698,263.432 900.531,248.432 921.5,240.5 Z"/></g>
<g><path style="opacity:1" fill="#233194" d="M 587.5,265.5 C 606.976,262.98 620.476,270.647 628,288.5C 631.85,308.642 624.35,322.475 605.5,330C 586.461,333.898 572.961,327.064 565,309.5C 560.093,288.31 567.593,273.644 587.5,265.5 Z"/></g>
<g><path style="opacity:1" fill="#233194" d="M 276.5,345.5 C 295.884,343.932 308.718,352.266 315,370.5C 317.71,389.589 310.21,402.756 292.5,410C 270.562,414.387 256.396,405.887 250,384.5C 248.419,364.307 257.252,351.307 276.5,345.5 Z"/></g>
<g><path style="opacity:1" fill="#888fc5" d="M 815.5,215.5 C 815.167,325.001 815.501,434.335 816.5,543.5C 816.44,544.043 816.107,544.376 815.5,544.5C 814.168,434.667 814.168,325.001 815.5,215.5 Z"/></g>
<g><path style="opacity:1" fill="#606ab2" d="M 409.5,633.5 C 409.5,635.833 409.5,638.167 409.5,640.5C 393.991,640.83 378.658,640.496 363.5,639.5C 378.5,639.5 393.5,639.5 408.5,639.5C 408.205,637.265 408.539,635.265 409.5,633.5 Z"/></g>
<g><path style="opacity:1" fill="#5964af" d="M 510.5,638.5 C 524.99,639.496 539.657,639.829 554.5,639.5C 539.661,640.826 524.661,640.826 509.5,639.5C 509.624,638.893 509.957,638.56 510.5,638.5 Z"/></g>
<g><path style="opacity:1" fill="#c6cae3" d="M 769.5,676.5 C 784.658,675.504 799.991,675.17 815.5,675.5C 815.795,677.735 815.461,679.735 814.5,681.5C 814.5,679.833 814.5,678.167 814.5,676.5C 799.5,676.5 784.5,676.5 769.5,676.5 Z"/></g>
<g><path style="opacity:1" fill="#fcfcfd" d="M 223.5,676.5 C 224.5,676.5 225.5,676.5 226.5,676.5C 226.5,685.5 226.5,694.5 226.5,703.5C 203.823,712.227 181.156,721.061 158.5,730C 167.521,733.513 176.521,737.013 185.5,740.5C 199.167,745.833 212.833,751.167 226.5,756.5C 226.827,766.015 226.494,775.348 225.5,784.5C 187.167,770.5 148.833,756.5 110.5,742.5C 110.184,734.248 110.518,726.081 111.5,718C 148.753,703.861 186.086,690.028 223.5,676.5 Z"/></g>
<g><path style="opacity:1" fill="#fefefe" d="M 362.5,721.5 C 363.496,706.676 363.829,691.676 363.5,676.5C 378.5,676.5 393.5,676.5 408.5,676.5C 408.5,678.167 408.5,679.833 408.5,681.5C 408.5,716.5 408.5,751.5 408.5,786.5C 393.167,786.5 377.833,786.5 362.5,786.5C 362.5,771.833 362.5,757.167 362.5,742.5C 343.5,742.5 324.5,742.5 305.5,742.5C 305.5,757.167 305.5,771.833 305.5,786.5C 290.167,786.5 274.833,786.5 259.5,786.5C 259.5,749.5 259.5,712.5 259.5,675.5C 274.833,675.5 290.167,675.5 305.5,675.5C 305.5,690.833 305.5,706.167 305.5,721.5C 324.5,721.5 343.5,721.5 362.5,721.5 Z"/></g>
<g><path style="opacity:1" fill="#fdfdfe" d="M 601.5,786.5 C 586.83,786.667 572.163,786.5 557.5,786C 554.167,780.333 550.833,774.667 547.5,769C 524.5,768.333 501.5,768.333 478.5,769C 475.167,774.667 471.833,780.333 468.5,786C 453.837,786.5 439.17,786.667 424.5,786.5C 422.972,786.483 422.472,785.816 423,784.5C 446.547,749.252 468.713,713.085 489.5,676C 504.178,675.167 518.845,675.334 533.5,676.5C 557.083,712.664 580.416,748.997 603.5,785.5C 603.043,786.298 602.376,786.631 601.5,786.5 Z"/></g>
<g><path style="opacity:1" fill="#fdfdfe" d="M 749.5,714.5 C 733.868,716.485 717.868,717.151 701.5,716.5C 696.898,709.357 690.231,705.524 681.5,705C 664.632,701.848 652.799,708.015 646,723.5C 642.39,741.521 649.223,753.354 666.5,759C 677.726,761.147 688.059,759.147 697.5,753C 699.439,751.568 700.772,749.735 701.5,747.5C 717.868,746.849 733.868,747.515 749.5,749.5C 748.962,751.117 748.629,752.784 748.5,754.5C 740.356,770.099 727.689,780.266 710.5,785C 690.278,788.781 669.945,789.447 649.5,787C 614.568,781.244 597.902,760.744 599.5,725.5C 601.706,703.267 613.373,688.434 634.5,681C 641.316,678.57 648.316,676.903 655.5,676C 673.984,674.635 692.317,675.635 710.5,679C 722.316,682.49 732.483,688.656 741,697.5C 744.904,702.642 747.738,708.309 749.5,714.5 Z"/></g>
<g><path style="opacity:1" fill="#fdfdfe" d="M 769.5,676.5 C 784.5,676.5 799.5,676.5 814.5,676.5C 814.5,678.167 814.5,679.833 814.5,681.5C 814.333,696.837 814.5,712.17 815,727.5C 839.047,710.613 863.214,693.946 887.5,677.5C 907.34,677.17 927.007,677.503 946.5,678.5C 944.5,679.833 942.5,681.167 940.5,682.5C 917.356,697.909 894.356,713.576 871.5,729.5C 870.479,730.002 870.312,730.668 871,731.5C 872.774,732.965 874.608,734.298 876.5,735.5C 900.137,752.324 923.804,769.157 947.5,786C 945.19,786.497 942.857,786.663 940.5,786.5C 922.83,786.667 905.164,786.5 887.5,786C 872.309,773.975 856.976,762.142 841.5,750.5C 832.407,756.129 823.574,762.129 815,768.5C 814.501,774.491 814.334,780.491 814.5,786.5C 799.167,786.5 783.833,786.5 768.5,786.5C 768.5,753.833 768.5,721.167 768.5,688.5C 768.237,684.4 768.57,680.4 769.5,676.5 Z"/></g>
<g><path style="opacity:1" fill="#4f5baa" d="M 887.5,677.5 C 907.337,676.172 927.337,676.172 947.5,677.5C 947.376,678.107 947.043,678.44 946.5,678.5C 927.007,677.503 907.34,677.17 887.5,677.5 Z"/></g>
<g><path style="opacity:1" fill="#c4c7e2" d="M 408.5,681.5 C 408.5,679.833 408.5,678.167 408.5,676.5C 393.5,676.5 378.5,676.5 363.5,676.5C 363.829,691.676 363.496,706.676 362.5,721.5C 362.5,706.167 362.5,690.833 362.5,675.5C 378.167,675.5 393.833,675.5 409.5,675.5C 409.795,677.735 409.461,679.735 408.5,681.5 Z"/></g>
<g><path style="opacity:1" fill="#26328e" d="M 940.5,682.5 C 942.192,685.869 941.526,688.702 938.5,691C 919.006,704.581 899.34,717.914 879.5,731C 877.859,732.129 876.859,733.629 876.5,735.5C 874.608,734.298 872.774,732.965 871,731.5C 870.312,730.668 870.479,730.002 871.5,729.5C 894.356,713.576 917.356,697.909 940.5,682.5 Z"/></g>
<g><path style="opacity:1" fill="#a7add4" d="M 223.5,676.5 C 224.568,675.566 225.901,675.232 227.5,675.5C 227.5,684.833 227.5,694.167 227.5,703.5C 227.167,703.5 226.833,703.5 226.5,703.5C 226.5,694.5 226.5,685.5 226.5,676.5C 225.5,676.5 224.5,676.5 223.5,676.5 Z"/></g>
<g><path style="opacity:1" fill="#222f8d" d="M 768.5,688.5 C 768.5,721.167 768.5,753.833 768.5,786.5C 783.833,786.5 799.167,786.5 814.5,786.5C 814.334,780.491 814.501,774.491 815,768.5C 823.574,762.129 832.407,756.129 841.5,750.5C 856.976,762.142 872.309,773.975 887.5,786C 905.164,786.5 922.83,786.667 940.5,786.5C 943.25,789.532 942.583,791.699 938.5,793C 922.5,793.667 906.5,793.667 890.5,793C 888.051,792.275 885.717,791.275 883.5,790C 872.167,781 860.833,772 849.5,763C 845.25,759.345 840.584,758.679 835.5,761C 829.755,765.289 823.921,769.456 818,773.5C 817.333,774.833 816.667,776.167 816,777.5C 815.792,781.918 815.126,786.251 814,790.5C 813.097,791.701 811.931,792.535 810.5,793C 797.097,793.944 783.764,793.611 770.5,792C 769.107,790.829 768.273,789.329 768,787.5C 767.169,754.331 767.336,721.331 768.5,688.5 Z"/></g>
<g><path style="opacity:1" fill="#24308d" d="M 226.5,703.5 C 226.833,703.5 227.167,703.5 227.5,703.5C 228.373,714.223 223.707,721.723 213.5,726C 203.417,729.544 193.751,733.877 184.5,739C 185.056,739.383 185.389,739.883 185.5,740.5C 176.521,737.013 167.521,733.513 158.5,730C 181.156,721.061 203.823,712.227 226.5,703.5 Z"/></g>
<g><path style="opacity:1" fill="#a2a7ce" d="M 749.5,714.5 C 750.404,715.209 750.737,716.209 750.5,717.5C 733.991,717.83 717.658,717.496 701.5,716.5C 717.868,717.151 733.868,716.485 749.5,714.5 Z"/></g>
<g><path style="opacity:1" fill="#253292" d="M 513.5,711.5 C 514.376,711.369 515.043,711.702 515.5,712.5C 520.833,721.833 526.167,731.167 531.5,740.5C 520.167,741.833 508.833,741.833 497.5,740.5C 503.112,730.94 508.445,721.273 513.5,711.5 Z"/></g>
<g><path style="opacity:1" fill="#27338f" d="M 599.5,725.5 C 597.902,760.744 614.568,781.244 649.5,787C 669.945,789.447 690.278,788.781 710.5,785C 727.689,780.266 740.356,770.099 748.5,754.5C 749.68,757.17 749.513,759.836 748,762.5C 741.654,775.178 731.82,784.011 718.5,789C 710.126,792.26 701.46,794.26 692.5,795C 672.049,797.11 652.049,795.11 632.5,789C 604.977,776.454 593.977,755.288 599.5,725.5 Z"/></g>
<g><path style="opacity:1" fill="#212f8c" d="M 110.5,742.5 C 148.833,756.5 187.167,770.5 225.5,784.5C 225.842,785.338 226.508,785.672 227.5,785.5C 227.335,790.84 224.668,794.34 219.5,796C 212.911,796.771 206.577,795.771 200.5,793C 172.851,783.118 145.518,772.451 118.5,761C 112.051,756.288 109.385,750.121 110.5,742.5 Z"/></g>
<g><path style="opacity:1" fill="#acb1d7" d="M 701.5,747.5 C 717.658,746.504 733.991,746.17 750.5,746.5C 750.737,747.791 750.404,748.791 749.5,749.5C 733.868,747.515 717.868,746.849 701.5,747.5 Z"/></g>
<g><path style="opacity:1" fill="#a6acd3" d="M 226.5,756.5 C 227.494,765.986 227.827,775.652 227.5,785.5C 226.508,785.672 225.842,785.338 225.5,784.5C 226.494,775.348 226.827,766.015 226.5,756.5 Z"/></g>
<g><path style="opacity:1" fill="#23308d" d="M 601.5,786.5 C 602.026,789.808 600.693,791.974 597.5,793C 585.167,793.667 572.833,793.667 560.5,793C 558.413,792.208 556.579,791.041 555,789.5C 552.785,784.9 549.952,780.734 546.5,777C 535.402,775.866 524.235,775.366 513,775.5C 501.765,775.366 490.598,775.866 479.5,777C 476.048,780.734 473.215,784.9 471,789.5C 469.421,791.041 467.587,792.208 465.5,793C 453.167,793.667 440.833,793.667 428.5,793C 425.307,791.974 423.974,789.808 424.5,786.5C 439.17,786.667 453.837,786.5 468.5,786C 471.833,780.333 475.167,774.667 478.5,769C 501.5,768.333 524.5,768.333 547.5,769C 550.833,774.667 554.167,780.333 557.5,786C 572.163,786.5 586.83,786.667 601.5,786.5 Z"/></g>
<g><path style="opacity:1" fill="#7981bd" d="M 841.5,826.5 C 839.528,835.44 838.861,844.773 839.5,854.5C 839.167,854.5 838.833,854.5 838.5,854.5C 838.5,844.833 838.5,835.167 838.5,825.5C 839.791,825.263 840.791,825.596 841.5,826.5 Z"/></g>
<g><path style="opacity:1" fill="#fdfdfe" d="M 841.5,826.5 C 879.43,840.699 917.43,854.699 955.5,868.5C 955.5,876.167 955.5,883.833 955.5,891.5C 917.588,906.921 879.255,921.587 840.5,935.5C 839.506,926.348 839.173,917.015 839.5,907.5C 853.683,901.657 868.017,895.99 882.5,890.5C 890.587,887.626 898.587,884.459 906.5,881C 884.291,871.874 861.957,863.041 839.5,854.5C 838.861,844.773 839.528,835.44 841.5,826.5 Z"/></g>
<g><path style="opacity:1" fill="#fcfcfd" d="M 255.5,904.5 C 250.043,918.789 240.043,928.622 225.5,934C 217.704,936.821 209.704,938.821 201.5,940C 188.167,940.667 174.833,940.667 161.5,940C 142.918,938.126 127.418,930.293 115,916.5C 108.495,906.482 105.328,895.482 105.5,883.5C 106.023,857.465 118.69,840.298 143.5,832C 149.432,830.35 155.432,829.017 161.5,828C 178.589,826.874 195.589,827.54 212.5,830C 232.44,833.526 246.606,844.359 255,862.5C 255.977,864.74 256.477,867.073 256.5,869.5C 240.497,869.667 224.497,869.5 208.5,869C 203.858,861.704 197.192,857.704 188.5,857C 161.272,854.558 149.439,866.724 153,893.5C 156.335,902.834 162.835,908.667 172.5,911C 183.109,912.565 193.109,910.899 202.5,906C 204.874,903.961 206.874,901.628 208.5,899C 224.497,898.5 240.497,898.333 256.5,898.5C 256.167,900.5 255.833,902.5 255.5,904.5 Z"/></g>
<g><path style="opacity:1" fill="#fdfdfe" d="M 275.5,829.5 C 290.833,829.5 306.167,829.5 321.5,829.5C 321.5,856.833 321.5,884.167 321.5,911.5C 348.5,911.5 375.5,911.5 402.5,911.5C 402.5,920.5 402.5,929.5 402.5,938.5C 360.167,938.5 317.833,938.5 275.5,938.5C 275.5,902.167 275.5,865.833 275.5,829.5 Z"/></g>
<g><path style="opacity:1" fill="#fdfdfe" d="M 410.5,829.5 C 425.833,829.5 441.167,829.5 456.5,829.5C 456.333,850.836 456.5,872.169 457,893.5C 461.566,908.709 471.733,914.542 487.5,911C 496.027,909.14 501.194,903.973 503,895.5C 504.456,873.553 504.956,851.553 504.5,829.5C 519.833,829.5 535.167,829.5 550.5,829.5C 550.5,850.167 550.5,870.833 550.5,891.5C 546.383,921.441 529.049,937.608 498.5,940C 485.833,940.667 473.167,940.667 460.5,940C 446.073,938.7 433.573,933.2 423,923.5C 415.663,914.493 411.663,904.159 411,892.5C 410.5,871.503 410.333,850.503 410.5,829.5 Z"/></g>
<g><path style="opacity:1" fill="#fdfdfe" d="M 569.5,829.5 C 603.502,829.333 637.502,829.5 671.5,830C 684.501,830.334 696.834,833.334 708.5,839C 719.011,849.28 721.178,861.113 715,874.5C 710.849,879.317 705.682,882.483 699.5,884C 710.546,885.261 719.046,890.427 725,899.5C 725.498,902.817 725.665,906.15 725.5,909.5C 724.565,919.935 719.232,927.102 709.5,931C 695.566,935.563 681.233,937.896 666.5,938C 634.168,938.5 601.835,938.667 569.5,938.5C 569.5,902.167 569.5,865.833 569.5,829.5 Z"/></g>
<g><path style="opacity:1" fill="#fcfcfd" d="M 808.5,836.5 C 792.715,870.076 776.882,903.743 761,937.5C 751.735,938.828 742.568,938.828 733.5,937.5C 749.988,901.855 766.488,866.188 783,830.5C 792.422,829.349 801.922,829.182 811.5,830C 810.086,831.993 809.086,834.16 808.5,836.5 Z"/></g>
<g><path style="opacity:1" fill="#273390" d="M 808.5,836.5 C 809.018,837.577 809.352,838.744 809.5,840C 794.436,874.527 778.603,908.693 762,942.5C 760.581,943.46 759.081,944.293 757.5,945C 751.167,945.667 744.833,945.667 738.5,945C 735.736,943.549 733.736,941.383 732.5,938.5C 732.624,937.893 732.957,937.56 733.5,937.5C 742.568,938.828 751.735,938.828 761,937.5C 776.882,903.743 792.715,870.076 808.5,836.5 Z"/></g>
<g><path style="opacity:1" fill="#222f8d" d="M 838.5,854.5 C 838.833,854.5 839.167,854.5 839.5,854.5C 861.957,863.041 884.291,871.874 906.5,881C 898.587,884.459 890.587,887.626 882.5,890.5C 879.227,887.856 875.56,885.689 871.5,884C 862.784,881.141 854.451,877.474 846.5,873C 840.13,868.427 837.463,862.26 838.5,854.5 Z"/></g>
<g><path style="opacity:1" fill="#243191" d="M 615.5,856.5 C 629.837,856.333 644.171,856.5 658.5,857C 664.585,856.813 668.585,859.479 670.5,865C 669.086,870.564 665.42,873.564 659.5,874C 644.837,874.5 630.17,874.667 615.5,874.5C 615.5,868.5 615.5,862.5 615.5,856.5 Z"/></g>
<g><path style="opacity:1" fill="#26328e" d="M 105.5,883.5 C 105.328,895.482 108.495,906.482 115,916.5C 127.418,930.293 142.918,938.126 161.5,940C 174.833,940.667 188.167,940.667 201.5,940C 209.704,938.821 217.704,936.821 225.5,934C 240.043,928.622 250.043,918.789 255.5,904.5C 256.27,911.294 254.436,917.294 250,922.5C 236.47,937.919 219.304,946.086 198.5,947C 180.26,948.57 162.26,947.236 144.5,943C 115.813,933.194 102.813,913.36 105.5,883.5 Z"/></g>
<g><path style="opacity:1" fill="#293490" d="M 410.5,829.5 C 410.333,850.503 410.5,871.503 411,892.5C 411.663,904.159 415.663,914.493 423,923.5C 433.573,933.2 446.073,938.7 460.5,940C 473.167,940.667 485.833,940.667 498.5,940C 529.049,937.608 546.383,921.441 550.5,891.5C 551.734,915.547 541.401,932.38 519.5,942C 498.808,947.679 477.808,949.012 456.5,946C 428.94,942.44 413.44,926.94 410,899.5C 409.17,875.996 409.337,852.663 410.5,829.5 Z"/></g>
<g><path style="opacity:1" fill="#22308d" d="M 955.5,891.5 C 957.275,899.823 954.609,906.656 947.5,912C 916.944,924.852 885.944,936.519 854.5,947C 845.811,948.462 840.478,944.962 838.5,936.5C 839.492,936.672 840.158,936.338 840.5,935.5C 879.255,921.587 917.588,906.921 955.5,891.5 Z"/></g>
<g><path style="opacity:1" fill="#223091" d="M 615.5,893.5 C 630.837,893.333 646.17,893.5 661.5,894C 672.164,893.948 675.497,898.615 671.5,908C 668.637,909.399 665.637,910.399 662.5,911C 646.837,911.5 631.17,911.667 615.5,911.5C 615.5,905.5 615.5,899.5 615.5,893.5 Z"/></g>
<g><path style="opacity:1" fill="#7780bc" d="M 839.5,907.5 C 839.173,917.015 839.506,926.348 840.5,935.5C 840.158,936.338 839.492,936.672 838.5,936.5C 838.173,926.652 838.506,916.986 839.5,907.5 Z"/></g>
<g><path style="opacity:1" fill="#2b3590" d="M 569.5,829.5 C 569.5,865.833 569.5,902.167 569.5,938.5C 601.835,938.667 634.168,938.5 666.5,938C 681.233,937.896 695.566,935.563 709.5,931C 719.232,927.102 724.565,919.935 725.5,909.5C 727.434,919.836 724.101,928.336 715.5,935C 700.585,941.654 684.918,944.988 668.5,945C 636.081,945.985 603.748,945.652 571.5,944C 570.667,943.167 569.833,942.333 569,941.5C 568.169,903.998 568.336,866.664 569.5,829.5 Z"/></g>
<g><path style="opacity:1" fill="#2b3590" d="M 275.5,829.5 C 275.5,865.833 275.5,902.167 275.5,938.5C 317.833,938.5 360.167,938.5 402.5,938.5C 402.5,929.5 402.5,920.5 402.5,911.5C 403.658,920.991 403.825,930.658 403,940.5C 402.167,942.667 400.667,944.167 398.5,945C 358.083,945.988 317.749,945.655 277.5,944C 276.667,943.167 275.833,942.333 275,941.5C 274.169,903.998 274.336,866.664 275.5,829.5 Z"/></g>
<g><path style="opacity:1" fill="#f4f5f9" d="M 117.5,984.5 C 121.182,984.335 124.848,984.501 128.5,985C 132.35,988.549 135.85,992.383 139,996.5C 139.499,992.514 139.666,988.514 139.5,984.5C 142.5,984.5 145.5,984.5 148.5,984.5C 148.5,991.167 148.5,997.833 148.5,1004.5C 144.818,1004.67 141.152,1004.5 137.5,1004C 134,999.833 130.5,995.667 127,991.5C 126.501,995.821 126.334,1000.15 126.5,1004.5C 123.5,1004.5 120.5,1004.5 117.5,1004.5C 117.5,997.833 117.5,991.167 117.5,984.5 Z"/></g>
<g><path style="opacity:1" fill="#f6f7fa" d="M 204.5,983.5 C 212.185,982.099 218.685,984.099 224,989.5C 225.426,994.757 224.259,999.257 220.5,1003C 214.92,1004.52 209.253,1004.85 203.5,1004C 197.53,1001.46 195.363,996.957 197,990.5C 198.742,987.254 201.242,984.921 204.5,983.5 Z"/></g>
<g><path style="opacity:1" fill="#f6f6fa" d="M 272.5,984.5 C 279.841,984.334 287.174,984.5 294.5,985C 300.121,985.855 301.954,989.022 300,994.5C 299.167,995.333 298.333,996.167 297.5,997C 299.747,998.995 300.747,1001.5 300.5,1004.5C 297.753,1004.81 295.086,1004.48 292.5,1003.5C 290.358,998.901 286.691,997.234 281.5,998.5C 281.5,1000.5 281.5,1002.5 281.5,1004.5C 278.5,1004.5 275.5,1004.5 272.5,1004.5C 272.5,997.833 272.5,991.167 272.5,984.5 Z"/></g>
<g><path style="opacity:1" fill="#fcfcfd" d="M 371.5,984.5 C 371.5,985.833 371.5,987.167 371.5,988.5C 368.833,988.5 366.167,988.5 363.5,988.5C 363.5,993.833 363.5,999.167 363.5,1004.5C 360.833,1004.5 358.167,1004.5 355.5,1004.5C 355.5,999.5 355.5,994.5 355.5,989.5C 352.833,989.5 350.167,989.5 347.5,989.5C 347.5,987.833 347.5,986.167 347.5,984.5C 355.5,984.5 363.5,984.5 371.5,984.5 Z"/></g>
<g><path style="opacity:1" fill="#f8f8fb" d="M 419.5,984.5 C 422.167,984.5 424.833,984.5 427.5,984.5C 427.194,987.385 427.527,990.052 428.5,992.5C 431.833,992.5 435.167,992.5 438.5,992.5C 439.473,990.052 439.806,987.385 439.5,984.5C 442.167,984.5 444.833,984.5 447.5,984.5C 447.5,991.167 447.5,997.833 447.5,1004.5C 444.5,1004.5 441.5,1004.5 438.5,1004.5C 438.5,1001.83 438.5,999.167 438.5,996.5C 435.167,996.5 431.833,996.5 428.5,996.5C 428.5,999.167 428.5,1001.83 428.5,1004.5C 425.5,1004.5 422.5,1004.5 419.5,1004.5C 419.5,997.833 419.5,991.167 419.5,984.5 Z"/></g>
<g><path style="opacity:1" fill="#939ac9" d="M 419.5,984.5 C 422.287,983.523 425.287,983.19 428.5,983.5C 428.5,986.5 428.5,989.5 428.5,992.5C 427.527,990.052 427.194,987.385 427.5,984.5C 424.833,984.5 422.167,984.5 419.5,984.5 Z"/></g>
<g><path style="opacity:1" fill="#f7f8fb" d="M 522.5,984.5 C 529.841,984.334 537.174,984.5 544.5,985C 550.679,986.887 552.012,990.554 548.5,996C 543.1,998.278 537.434,999.111 531.5,998.5C 531.5,1000.5 531.5,1002.5 531.5,1004.5C 528.5,1004.5 525.5,1004.5 522.5,1004.5C 522.5,997.833 522.5,991.167 522.5,984.5 Z"/></g>
<g><path style="opacity:1" fill="#f6f6fa" d="M 608.5,984.5 C 611.898,984.18 615.232,984.513 618.5,985.5C 622.303,991.801 626.303,997.968 630.5,1004C 627.5,1004.67 624.5,1004.67 621.5,1004C 621.043,1003.59 620.709,1003.09 620.5,1002.5C 615.833,1001.17 611.167,1001.17 606.5,1002.5C 606.291,1003.09 605.957,1003.59 605.5,1004C 602.5,1004.67 599.5,1004.67 596.5,1004C 601.149,997.862 605.149,991.362 608.5,984.5 Z"/></g>
<g><path style="opacity:1" fill="#f8f8fb" d="M 677.5,984.5 C 684.841,984.334 692.174,984.5 699.5,985C 706.265,987.64 707.265,991.807 702.5,997.5C 703.873,999.49 704.873,1001.66 705.5,1004C 702.518,1004.5 699.518,1004.66 696.5,1004.5C 696.714,1002.86 696.38,1001.36 695.5,1000C 692.649,998.711 689.649,998.211 686.5,998.5C 686.5,1000.5 686.5,1002.5 686.5,1004.5C 683.5,1004.5 680.5,1004.5 677.5,1004.5C 677.5,997.833 677.5,991.167 677.5,984.5 Z"/></g>
<g><path style="opacity:1" fill="#f9fafc" d="M 753.5,984.5 C 756.167,984.5 758.833,984.5 761.5,984.5C 761.335,987.518 761.502,990.518 762,993.5C 766.08,990.543 770.247,987.71 774.5,985C 778.167,984.333 781.833,984.333 785.5,985C 781.167,988 776.833,991 772.5,994C 777.167,997.333 781.833,1000.67 786.5,1004C 782.5,1004.67 778.5,1004.67 774.5,1004C 772.093,1001.72 769.593,999.549 767,997.5C 763.62,998.736 761.786,1001.07 761.5,1004.5C 758.833,1004.5 756.167,1004.5 753.5,1004.5C 753.5,997.833 753.5,991.167 753.5,984.5 Z"/></g>
<g><path style="opacity:1" fill="#f5f5fa" d="M 859.5,999.5 C 864.021,998.569 868.687,998.403 873.5,999C 874.833,998.333 874.833,997.667 873.5,997C 871.19,996.503 868.857,996.337 866.5,996.5C 858.678,996.212 856.845,992.879 861,986.5C 867.384,982.709 873.884,982.542 880.5,986C 881.687,987.019 882.687,988.186 883.5,989.5C 878.463,990.153 873.463,990.487 868.5,990.5C 872.5,991.333 876.5,992.167 880.5,993C 884.367,996.249 884.367,999.582 880.5,1003C 874.92,1004.52 869.253,1004.85 863.5,1004C 861.959,1002.63 860.625,1001.13 859.5,999.5 Z"/></g>
<g><path style="opacity:1" fill="#f6f6fa" d="M 931.5,1000.5 C 933.635,998.631 936.302,997.964 939.5,998.5C 941.901,1000.06 943.901,999.729 945.5,997.5C 943.393,996.532 941.059,996.198 938.5,996.5C 932.623,996.794 930.123,994.128 931,988.5C 935.883,983.796 941.717,982.296 948.5,984C 951.573,984.697 953.573,986.53 954.5,989.5C 949.479,990.047 944.479,990.38 939.5,990.5C 943.5,991.333 947.5,992.167 951.5,993C 956.537,996.034 956.537,999.367 951.5,1003C 946.282,1004.56 940.949,1004.9 935.5,1004C 933.676,1003.34 932.343,1002.17 931.5,1000.5 Z"/></g>
<g><path style="opacity:1" fill="#a1a6d0" d="M 447.5,984.5 C 444.833,984.5 442.167,984.5 439.5,984.5C 439.806,987.385 439.473,990.052 438.5,992.5C 438.5,989.5 438.5,986.5 438.5,983.5C 441.713,983.19 444.713,983.523 447.5,984.5 Z"/></g>
<g><path style="opacity:1" fill="#2a3696" d="M 207.5,989.5 C 210.119,989.232 212.619,989.565 215,990.5C 217.243,997.265 214.743,1000.1 207.5,999C 204.888,995.836 204.888,992.669 207.5,989.5 Z"/></g>
<g><path style="opacity:1" fill="#2a3695" d="M 281.5,989.5 C 284.85,989.335 288.183,989.502 291.5,990C 292.815,991.395 292.481,992.395 290.5,993C 287.518,993.498 284.518,993.665 281.5,993.5C 281.5,992.167 281.5,990.833 281.5,989.5 Z"/></g>
<g><path style="opacity:1" fill="#263393" d="M 531.5,989.5 C 534.833,989.5 538.167,989.5 541.5,989.5C 541.67,990.822 541.337,991.989 540.5,993C 537.518,993.498 534.518,993.665 531.5,993.5C 531.5,992.167 531.5,990.833 531.5,989.5 Z"/></g>
<g><path style="opacity:1" fill="#273493" d="M 686.5,989.5 C 689.833,989.5 693.167,989.5 696.5,989.5C 696.67,990.822 696.337,991.989 695.5,993C 692.518,993.498 689.518,993.665 686.5,993.5C 686.5,992.167 686.5,990.833 686.5,989.5 Z"/></g>
<g><path style="opacity:1" fill="#868dc2" d="M 371.5,984.5 C 372.451,985.919 372.784,987.585 372.5,989.5C 369.833,989.5 367.167,989.5 364.5,989.5C 364.821,994.695 364.487,999.695 363.5,1004.5C 363.5,999.167 363.5,993.833 363.5,988.5C 366.167,988.5 368.833,988.5 371.5,988.5C 371.5,987.167 371.5,985.833 371.5,984.5 Z"/></g>
<g><path style="opacity:1" fill="#434a9f" d="M 612.5,990.5 C 614.513,991.475 615.846,993.142 616.5,995.5C 614.5,996.833 612.5,996.833 610.5,995.5C 611.456,993.925 612.123,992.258 612.5,990.5 Z"/></g>
<g><path style="opacity:1" fill="#6d73b4" d="M 866.5,996.5 C 868.857,996.337 871.19,996.503 873.5,997C 874.833,997.667 874.833,998.333 873.5,999C 868.687,998.403 864.021,998.569 859.5,999.5C 858.957,999.44 858.624,999.107 858.5,998.5C 861.306,997.832 863.972,997.166 866.5,996.5 Z"/></g>
<g><path style="opacity:1" fill="#888fc3" d="M 938.5,996.5 C 941.059,996.198 943.393,996.532 945.5,997.5C 943.265,997.205 941.265,997.539 939.5,998.5C 936.302,997.964 933.635,998.631 931.5,1000.5C 930.596,999.791 930.263,998.791 930.5,997.5C 933.385,997.806 936.052,997.473 938.5,996.5 Z"/></g>
<g><path style="opacity:1" fill="#313c96" d="M 939.5,998.5 C 941.265,997.539 943.265,997.205 945.5,997.5C 943.901,999.729 941.901,1000.06 939.5,998.5 Z"/></g>
</svg>
